<svg xmlns="http://www.w3.org/2000/svg" width="32" height="32" viewBox="0 0 32 32">
  <g id="Group_5" data-name="Group 5" transform="translate(-47 -490)">
    <g id="Group_3" data-name="Group 3" transform="translate(-24 1)">
      <g id="Rectangle_2" data-name="Rectangle 2" transform="translate(78 502)" fill="none" stroke="#d8d9e3" stroke-width="1.5">
        <rect width="18" height="14" rx="3" stroke="none"/>
        <rect x="0.75" y="0.75" width="16.5" height="12.5" rx="2.25" fill="none"/>
      </g>
      <g id="Rectangle_3" data-name="Rectangle 3" transform="translate(82 494)" fill="none" stroke="#d8d9e3" stroke-width="1.5">
        <path d="M5,0H5a5,5,0,0,1,5,5V9a0,0,0,0,1,0,0H0A0,0,0,0,1,0,9V5A5,5,0,0,1,5,0Z" stroke="none"/>
        <path d="M5,.75H5A4.25,4.25,0,0,1,9.25,5V7.5a.75.75,0,0,1-.75.75h-7A.75.75,0,0,1,.75,7.5V5A4.25,4.25,0,0,1,5,.75Z" fill="none"/>
      </g>
      <g id="Group_2" data-name="Group 2">
        <circle id="Ellipse_1" data-name="Ellipse 1" cx="2" cy="2" r="2" transform="translate(85 506)" fill="#d8d9e3"/>
        <rect id="Rectangle_4" data-name="Rectangle 4" width="2" height="5" rx="1" transform="translate(86 508)" fill="#d8d9e3"/>
      </g>
    </g>
    <rect id="Rectangle_5" data-name="Rectangle 5" width="32" height="32" transform="translate(47 490)" fill="none"/>
  </g>
</svg>
